G04 #@! TF.FileFunction,Copper,L1,Top,Signal*
%FSLAX46Y46*%
G04 Gerber Fmt 4.6, Leading zero omitted, Abs format (unit mm)*
G04 Created by KiCad (PCBNEW 4.0.1-2.fc23-product) date Tue 12 Jan 2016 10:32:47 PM CET*
%MOMM*%
G01*
G04 APERTURE LIST*
%ADD10C,0.100000*%
%ADD11R,1.000000X0.700000*%
%ADD12R,8.000000X1.900000*%
%ADD13R,7.500000X2.000000*%
%ADD14R,1.000000X1.600000*%
%ADD15R,0.800000X0.750000*%
%ADD16R,1.700000X0.900000*%
%ADD17C,3.000000*%
%ADD18R,2.880000X1.120000*%
%ADD19C,0.600000*%
%ADD20C,0.355600*%
%ADD21C,1.900000*%
%ADD22C,1.120000*%
%ADD23C,0.508000*%
%ADD24C,0.254000*%
G04 APERTURE END LIST*
D10*
D11*
X147714000Y-107696000D03*
X147714000Y-108646000D03*
X147714000Y-109596000D03*
X150114000Y-109596000D03*
X150114000Y-107696000D03*
D12*
X129995000Y-118999000D03*
X129995000Y-111379000D03*
D13*
X130245000Y-113889000D03*
X130245000Y-116489000D03*
D14*
X144121000Y-108966000D03*
X141121000Y-108966000D03*
X157964000Y-121666000D03*
X154964000Y-121666000D03*
X148360000Y-121666000D03*
X151360000Y-121666000D03*
X144756000Y-121666000D03*
X141756000Y-121666000D03*
D15*
X144677000Y-114173000D03*
X146177000Y-114173000D03*
X144677000Y-116205000D03*
X146177000Y-116205000D03*
D16*
X157988000Y-117348000D03*
X157988000Y-114448000D03*
X155194000Y-114480000D03*
X155194000Y-111580000D03*
X152273000Y-118798000D03*
X152273000Y-115898000D03*
X149479000Y-115930000D03*
X149479000Y-113030000D03*
D17*
X166243000Y-121759000D03*
X166243000Y-108619000D03*
D18*
X162663000Y-118689000D03*
X162663000Y-116189000D03*
X162663000Y-114189000D03*
X162663000Y-111689000D03*
D19*
X146050000Y-121539000D03*
X145923000Y-122682000D03*
X147066000Y-122682000D03*
X147066000Y-121539000D03*
X147066000Y-120396000D03*
X145796000Y-120396000D03*
X145415000Y-109982000D03*
X146177000Y-107061000D03*
X145415000Y-107569000D03*
X145415000Y-108839000D03*
X146177000Y-109474000D03*
X140462000Y-110744000D03*
X139446000Y-110744000D03*
X138811000Y-111506000D03*
X147828000Y-111760000D03*
X148590000Y-110871000D03*
X149352000Y-111760000D03*
X150114000Y-110871000D03*
X150876000Y-111760000D03*
X151638000Y-109982000D03*
X153289000Y-111887000D03*
X139954000Y-111506000D03*
X140970000Y-111506000D03*
X141478000Y-110744000D03*
X153670000Y-122936000D03*
X152527000Y-122936000D03*
X152654000Y-121666000D03*
X153670000Y-121666000D03*
X153670000Y-120396000D03*
X161036000Y-123444000D03*
X166116000Y-116840000D03*
X174752000Y-123444000D03*
X174752000Y-120396000D03*
X174752000Y-116332000D03*
X174752000Y-113792000D03*
X174752000Y-110236000D03*
X174752000Y-107188000D03*
X160528000Y-106680000D03*
X160528000Y-108712000D03*
X152654000Y-120396000D03*
X160528000Y-110744000D03*
X158369000Y-119126000D03*
X159004000Y-120142000D03*
X159385000Y-120777000D03*
X157226000Y-120015000D03*
X157607000Y-118618000D03*
X158115000Y-119888000D03*
X159258000Y-118618000D03*
X159385000Y-119380000D03*
X160401000Y-119761000D03*
X160401000Y-118364000D03*
X156210000Y-119634000D03*
X156210000Y-118237000D03*
X155956000Y-107569000D03*
X156718000Y-107823000D03*
X156972000Y-108585000D03*
X157734000Y-108839000D03*
X156845000Y-119126000D03*
D20*
X145923000Y-122682000D02*
X145923000Y-121666000D01*
X145923000Y-121666000D02*
X146050000Y-121539000D01*
X147066000Y-121539000D02*
X147066000Y-122682000D01*
X145796000Y-120396000D02*
X147193000Y-120396000D01*
D21*
X144121000Y-108966000D02*
X144907000Y-108966000D01*
X144907000Y-108966000D02*
X145796000Y-109855000D01*
X145796000Y-107291000D02*
X145796000Y-109855000D01*
X144121000Y-108966000D02*
X145893401Y-107193599D01*
X145893401Y-107193599D02*
X146332079Y-107193599D01*
X146332079Y-107193599D02*
X147714000Y-107193599D01*
D20*
X140081000Y-111506000D02*
X140081000Y-110998000D01*
X140081000Y-110998000D02*
X140462000Y-110617000D01*
X139319000Y-110617000D02*
X139192000Y-110744000D01*
X139192000Y-110744000D02*
X139192000Y-111506000D01*
X148590000Y-110744000D02*
X147828000Y-111506000D01*
X147828000Y-111506000D02*
X147828000Y-111760000D01*
X149860000Y-110744000D02*
X149479000Y-111125000D01*
X149479000Y-111125000D02*
X149479000Y-111633000D01*
X151638000Y-109982000D02*
X151638000Y-110744000D01*
X151638000Y-110744000D02*
X150749000Y-111633000D01*
X155194000Y-111580000D02*
X153723000Y-111580000D01*
X153723000Y-111580000D02*
X153416000Y-111887000D01*
X141097000Y-111506000D02*
X140081000Y-111506000D01*
X141121000Y-108966000D02*
X141121000Y-110387000D01*
X141121000Y-110387000D02*
X141478000Y-110744000D01*
D21*
X129995000Y-111379000D02*
X138708000Y-111379000D01*
X138708000Y-111379000D02*
X141121000Y-108966000D01*
D20*
X141121000Y-108966000D02*
X141121000Y-109266000D01*
X152654000Y-121666000D02*
X152654000Y-122809000D01*
X152654000Y-122809000D02*
X152527000Y-122936000D01*
X153670000Y-120396000D02*
X153670000Y-121666000D01*
X152654000Y-120396000D02*
X153670000Y-120396000D01*
X161036000Y-123444000D02*
X161335999Y-123144001D01*
X174752000Y-123444000D02*
X172720000Y-123444000D01*
X172720000Y-123444000D02*
X166116000Y-116840000D01*
X174752000Y-116332000D02*
X174752000Y-120396000D01*
X174752000Y-110236000D02*
X174752000Y-113792000D01*
X164431000Y-106553000D02*
X174117000Y-106553000D01*
X174117000Y-106553000D02*
X174752000Y-107188000D01*
X160528000Y-106680000D02*
X164304000Y-106680000D01*
X164304000Y-106680000D02*
X164431000Y-106553000D01*
X160528000Y-110744000D02*
X160528000Y-108712000D01*
X149479000Y-113030000D02*
X148717000Y-113030000D01*
X151360000Y-121666000D02*
X151384000Y-121666000D01*
X151384000Y-121666000D02*
X152654000Y-120396000D01*
X162663000Y-111689000D02*
X161473000Y-111689000D01*
X161473000Y-111689000D02*
X160528000Y-110744000D01*
X154964000Y-121666000D02*
X154559000Y-121666000D01*
D21*
X149987000Y-107696000D02*
X156337000Y-107696000D01*
X156337000Y-107696000D02*
X157734000Y-109093000D01*
X129995000Y-118999000D02*
X139089000Y-118999000D01*
X139089000Y-118999000D02*
X141756000Y-121666000D01*
D22*
X133646100Y-114540100D02*
X143709900Y-114540100D01*
X143709900Y-114540100D02*
X144077000Y-114173000D01*
X144077000Y-114173000D02*
X144677000Y-114173000D01*
X130245000Y-113889000D02*
X132995000Y-113889000D01*
X132995000Y-113889000D02*
X133646100Y-114540100D01*
X162663000Y-114189000D02*
X160503000Y-114189000D01*
X160503000Y-114189000D02*
X160154091Y-114537909D01*
X160154091Y-114537909D02*
X147141909Y-114537909D01*
X147141909Y-114537909D02*
X146777000Y-114173000D01*
X146177000Y-114173000D02*
X146777000Y-114173000D01*
X146777000Y-114173000D02*
X147144101Y-114540101D01*
X133646100Y-115837900D02*
X143709900Y-115837900D01*
X143709900Y-115837900D02*
X144077000Y-116205000D01*
X144077000Y-116205000D02*
X144677000Y-116205000D01*
X130245000Y-116489000D02*
X132995000Y-116489000D01*
X132995000Y-116489000D02*
X133646100Y-115837900D01*
X160154091Y-115840091D02*
X147141909Y-115840091D01*
X160503000Y-116189000D02*
X160154091Y-115840091D01*
X162663000Y-116189000D02*
X160503000Y-116189000D01*
X147141909Y-115840091D02*
X146777000Y-116205000D01*
X146177000Y-116205000D02*
X146777000Y-116205000D01*
X146777000Y-116205000D02*
X147144101Y-115837899D01*
D23*
G36*
X149299395Y-109399605D02*
X149383422Y-109455331D01*
X149479000Y-109474000D01*
X151659790Y-109474000D01*
X152982395Y-110796605D01*
X153066422Y-110852331D01*
X153162000Y-110871000D01*
X155977790Y-110871000D01*
X156083000Y-110976210D01*
X156083000Y-112162790D01*
X155977790Y-112268000D01*
X151892000Y-112268000D01*
X151793180Y-112288012D01*
X151712395Y-112342395D01*
X150643790Y-113411000D01*
X148568210Y-113411000D01*
X147447000Y-112289790D01*
X147447000Y-108651599D01*
X147714000Y-108651599D01*
X148048814Y-108585000D01*
X148484790Y-108585000D01*
X149299395Y-109399605D01*
X149299395Y-109399605D01*
G37*
X149299395Y-109399605D02*
X149383422Y-109455331D01*
X149479000Y-109474000D01*
X151659790Y-109474000D01*
X152982395Y-110796605D01*
X153066422Y-110852331D01*
X153162000Y-110871000D01*
X155977790Y-110871000D01*
X156083000Y-110976210D01*
X156083000Y-112162790D01*
X155977790Y-112268000D01*
X151892000Y-112268000D01*
X151793180Y-112288012D01*
X151712395Y-112342395D01*
X150643790Y-113411000D01*
X148568210Y-113411000D01*
X147447000Y-112289790D01*
X147447000Y-108651599D01*
X147714000Y-108651599D01*
X148048814Y-108585000D01*
X148484790Y-108585000D01*
X149299395Y-109399605D01*
G36*
X148590000Y-121009210D02*
X148590000Y-122322790D01*
X147849790Y-123063000D01*
X145266210Y-123063000D01*
X144526000Y-122322790D01*
X144526000Y-121009210D01*
X145266210Y-120269000D01*
X147849790Y-120269000D01*
X148590000Y-121009210D01*
X148590000Y-121009210D01*
G37*
X148590000Y-121009210D02*
X148590000Y-122322790D01*
X147849790Y-123063000D01*
X145266210Y-123063000D01*
X144526000Y-122322790D01*
X144526000Y-121009210D01*
X145266210Y-120269000D01*
X147849790Y-120269000D01*
X148590000Y-121009210D01*
G36*
X155194000Y-121009210D02*
X155194000Y-122322790D01*
X154453790Y-123063000D01*
X151870210Y-123063000D01*
X151130000Y-122322790D01*
X151130000Y-121009210D01*
X151870210Y-120269000D01*
X154453790Y-120269000D01*
X155194000Y-121009210D01*
X155194000Y-121009210D01*
G37*
X155194000Y-121009210D02*
X155194000Y-122322790D01*
X154453790Y-123063000D01*
X151870210Y-123063000D01*
X151130000Y-122322790D01*
X151130000Y-121009210D01*
X151870210Y-120269000D01*
X154453790Y-120269000D01*
X155194000Y-121009210D01*
G36*
X160856395Y-118162605D02*
X160940422Y-118218331D01*
X161036000Y-118237000D01*
X163957000Y-118237000D01*
X163957000Y-119126000D01*
X161798000Y-119126000D01*
X161699180Y-119146012D01*
X161618395Y-119200395D01*
X158390790Y-122428000D01*
X157480000Y-122428000D01*
X157480000Y-121666000D01*
X157459988Y-121567180D01*
X157405605Y-121486395D01*
X155119605Y-119200395D01*
X155035578Y-119144669D01*
X154940000Y-119126000D01*
X151511000Y-119126000D01*
X151511000Y-118491000D01*
X154813000Y-118491000D01*
X154911820Y-118470988D01*
X154992605Y-118416605D01*
X156315210Y-117094000D01*
X159787790Y-117094000D01*
X160856395Y-118162605D01*
X160856395Y-118162605D01*
G37*
X160856395Y-118162605D02*
X160940422Y-118218331D01*
X161036000Y-118237000D01*
X163957000Y-118237000D01*
X163957000Y-119126000D01*
X161798000Y-119126000D01*
X161699180Y-119146012D01*
X161618395Y-119200395D01*
X158390790Y-122428000D01*
X157480000Y-122428000D01*
X157480000Y-121666000D01*
X157459988Y-121567180D01*
X157405605Y-121486395D01*
X155119605Y-119200395D01*
X155035578Y-119144669D01*
X154940000Y-119126000D01*
X151511000Y-119126000D01*
X151511000Y-118491000D01*
X154813000Y-118491000D01*
X154911820Y-118470988D01*
X154992605Y-118416605D01*
X156315210Y-117094000D01*
X159787790Y-117094000D01*
X160856395Y-118162605D01*
D24*
G36*
X176074000Y-124258000D02*
X160147000Y-124258000D01*
X160147000Y-122480606D01*
X162104606Y-120523000D01*
X164084000Y-120523000D01*
X164133410Y-120512994D01*
X164173803Y-120485803D01*
X165189803Y-119469803D01*
X165217666Y-119427789D01*
X165227000Y-119380000D01*
X165227000Y-113792000D01*
X165216994Y-113742590D01*
X165189803Y-113702197D01*
X164173803Y-112686197D01*
X164131789Y-112658334D01*
X164084000Y-112649000D01*
X161088606Y-112649000D01*
X160147000Y-111707394D01*
X160147000Y-106120000D01*
X176074000Y-106120000D01*
X176074000Y-124258000D01*
X176074000Y-124258000D01*
G37*
X176074000Y-124258000D02*
X160147000Y-124258000D01*
X160147000Y-122480606D01*
X162104606Y-120523000D01*
X164084000Y-120523000D01*
X164133410Y-120512994D01*
X164173803Y-120485803D01*
X165189803Y-119469803D01*
X165217666Y-119427789D01*
X165227000Y-119380000D01*
X165227000Y-113792000D01*
X165216994Y-113742590D01*
X165189803Y-113702197D01*
X164173803Y-112686197D01*
X164131789Y-112658334D01*
X164084000Y-112649000D01*
X161088606Y-112649000D01*
X160147000Y-111707394D01*
X160147000Y-106120000D01*
X176074000Y-106120000D01*
X176074000Y-124258000D01*
G36*
X141859000Y-108129606D02*
X141859000Y-111707394D01*
X141552394Y-112014000D01*
X138863606Y-112014000D01*
X138557000Y-111707394D01*
X138557000Y-110542606D01*
X140297803Y-108801803D01*
X140325666Y-108759789D01*
X140335000Y-108712000D01*
X140335000Y-108129606D01*
X140514606Y-107950000D01*
X141679394Y-107950000D01*
X141859000Y-108129606D01*
X141859000Y-108129606D01*
G37*
X141859000Y-108129606D02*
X141859000Y-111707394D01*
X141552394Y-112014000D01*
X138863606Y-112014000D01*
X138557000Y-111707394D01*
X138557000Y-110542606D01*
X140297803Y-108801803D01*
X140325666Y-108759789D01*
X140335000Y-108712000D01*
X140335000Y-108129606D01*
X140514606Y-107950000D01*
X141679394Y-107950000D01*
X141859000Y-108129606D01*
M02*
