G04 #@! TF.FileFunction,Copper,L2,Bot,Signal*
%FSLAX46Y46*%
G04 Gerber Fmt 4.6, Leading zero omitted, Abs format (unit mm)*
G04 Created by KiCad (PCBNEW 4.0.1-2.fc23-product) date Tue 12 Jan 2016 10:32:47 PM CET*
%MOMM*%
G01*
G04 APERTURE LIST*
%ADD10C,0.100000*%
%ADD11C,3.000000*%
%ADD12C,0.600000*%
%ADD13C,0.355600*%
%ADD14C,1.900000*%
%ADD15C,0.254000*%
G04 APERTURE END LIST*
D10*
D11*
X166243000Y-121759000D03*
X166243000Y-108619000D03*
D12*
X146050000Y-121539000D03*
X145923000Y-122682000D03*
X147066000Y-122682000D03*
X147066000Y-121539000D03*
X147066000Y-120396000D03*
X145796000Y-120396000D03*
X145415000Y-109982000D03*
X146177000Y-107061000D03*
X145415000Y-107569000D03*
X145415000Y-108839000D03*
X146177000Y-109474000D03*
X140462000Y-110744000D03*
X139446000Y-110744000D03*
X138811000Y-111506000D03*
X147828000Y-111760000D03*
X148590000Y-110871000D03*
X149352000Y-111760000D03*
X150114000Y-110871000D03*
X150876000Y-111760000D03*
X151638000Y-109982000D03*
X153289000Y-111887000D03*
X139954000Y-111506000D03*
X140970000Y-111506000D03*
X141478000Y-110744000D03*
X153670000Y-122936000D03*
X152527000Y-122936000D03*
X152654000Y-121666000D03*
X153670000Y-121666000D03*
X153670000Y-120396000D03*
X161036000Y-123444000D03*
X166116000Y-116840000D03*
X174752000Y-123444000D03*
X174752000Y-120396000D03*
X174752000Y-116332000D03*
X174752000Y-113792000D03*
X174752000Y-110236000D03*
X174752000Y-107188000D03*
X160528000Y-106680000D03*
X160528000Y-108712000D03*
X152654000Y-120396000D03*
X160528000Y-110744000D03*
X158369000Y-119126000D03*
X159004000Y-120142000D03*
X159385000Y-120777000D03*
X157226000Y-120015000D03*
X157607000Y-118618000D03*
X158115000Y-119888000D03*
X159258000Y-118618000D03*
X159385000Y-119380000D03*
X160401000Y-119761000D03*
X160401000Y-118364000D03*
X156210000Y-119634000D03*
X156210000Y-118237000D03*
X155956000Y-107569000D03*
X156718000Y-107823000D03*
X156972000Y-108585000D03*
X157734000Y-108839000D03*
X156845000Y-119126000D03*
D13*
X147066000Y-122682000D02*
X145923000Y-122682000D01*
X147193000Y-120396000D02*
X147193000Y-121412000D01*
X147193000Y-121412000D02*
X147066000Y-121539000D01*
X145796000Y-119126000D02*
X145796000Y-120396000D01*
D14*
X145796000Y-109855000D02*
X145796000Y-107492800D01*
X145796000Y-119126000D02*
X145796000Y-109855000D01*
D13*
X140462000Y-110617000D02*
X139319000Y-110617000D01*
X149479000Y-111633000D02*
X148590000Y-110744000D01*
X150749000Y-111633000D02*
X149860000Y-110744000D01*
X153416000Y-111887000D02*
X151638000Y-110109000D01*
X151638000Y-110109000D02*
X151638000Y-109982000D01*
X141478000Y-110744000D02*
X141097000Y-111125000D01*
X141097000Y-111125000D02*
X141097000Y-111506000D01*
X152527000Y-122936000D02*
X153670000Y-122936000D01*
X153670000Y-121666000D02*
X152654000Y-121666000D01*
X153670000Y-120396000D02*
X153370001Y-120695999D01*
X153370001Y-120695999D02*
X153370001Y-120858001D01*
X165608000Y-119507000D02*
X161671000Y-123444000D01*
X161671000Y-123444000D02*
X161036000Y-123444000D01*
X165608000Y-117772264D02*
X165608000Y-119507000D01*
X166116000Y-116840000D02*
X166116000Y-117264264D01*
X166116000Y-117264264D02*
X165608000Y-117772264D01*
X174752000Y-120396000D02*
X174752000Y-123444000D01*
X174752000Y-113792000D02*
X174752000Y-116332000D01*
X174752000Y-107188000D02*
X174752000Y-110236000D01*
X160528000Y-108712000D02*
X160528000Y-106680000D01*
D14*
X159512000Y-118491000D02*
X158750000Y-119253000D01*
X159893000Y-118491000D02*
X159512000Y-118491000D01*
X157734000Y-117475000D02*
X157480000Y-117475000D01*
X157480000Y-117475000D02*
X156083000Y-118872000D01*
X157734000Y-109093000D02*
X156337000Y-107696000D01*
X156083000Y-118872000D02*
X158115000Y-120904000D01*
X158115000Y-120904000D02*
X158623000Y-120904000D01*
X157734000Y-117856000D02*
X157734000Y-119634000D01*
X158623000Y-120904000D02*
X159893000Y-119634000D01*
X159893000Y-118491000D02*
X159258000Y-117856000D01*
X159258000Y-117856000D02*
X157734000Y-117856000D01*
X157734000Y-109093000D02*
X157734000Y-117475000D01*
X159893000Y-119634000D02*
X159893000Y-118491000D01*
D15*
G36*
X176074000Y-124258000D02*
X139871911Y-124258000D01*
X139518915Y-124187785D01*
X139257732Y-124013268D01*
X139083216Y-123752086D01*
X139013000Y-123399088D01*
X139013000Y-122428000D01*
X139004238Y-122383950D01*
X139004238Y-122370038D01*
X138907565Y-121884031D01*
X138839477Y-121719652D01*
X138564176Y-121307634D01*
X138438365Y-121181823D01*
X138026348Y-120906523D01*
X137922925Y-120863684D01*
X137861969Y-120838435D01*
X137375961Y-120741762D01*
X137331050Y-120741762D01*
X137287000Y-120733000D01*
X137287000Y-109645000D01*
X137331050Y-109636238D01*
X137375961Y-109636238D01*
X137861969Y-109539565D01*
X138026348Y-109471477D01*
X138438365Y-109196177D01*
X138564176Y-109070366D01*
X138839477Y-108658348D01*
X138907565Y-108493969D01*
X139004238Y-108007962D01*
X139004238Y-107994050D01*
X139013000Y-107950000D01*
X139013000Y-107492800D01*
X144465000Y-107492800D01*
X144465000Y-119126000D01*
X144526000Y-119432669D01*
X144526000Y-123063000D01*
X144554003Y-123206367D01*
X144637592Y-123332408D01*
X144891592Y-123586408D01*
X145012770Y-123667983D01*
X145161000Y-123698000D01*
X147447000Y-123698000D01*
X147590367Y-123669997D01*
X147716408Y-123586408D01*
X147970408Y-123332408D01*
X148051983Y-123211230D01*
X148082000Y-123063000D01*
X148082000Y-120015000D01*
X148053997Y-119871633D01*
X147970408Y-119745592D01*
X147127000Y-118902184D01*
X147127000Y-118872000D01*
X154752000Y-118872000D01*
X154853316Y-119381352D01*
X155141841Y-119813159D01*
X157173841Y-121845159D01*
X157605648Y-122133684D01*
X158115000Y-122235000D01*
X158623000Y-122235000D01*
X159132352Y-122133684D01*
X159564159Y-121845159D01*
X160834159Y-120575159D01*
X161122684Y-120143352D01*
X161224000Y-119634000D01*
X161224000Y-118491000D01*
X161122684Y-117981648D01*
X160834159Y-117549841D01*
X160199159Y-116914841D01*
X159767352Y-116626316D01*
X159258000Y-116525000D01*
X159065000Y-116525000D01*
X159065000Y-109093000D01*
X158963684Y-108583648D01*
X158675159Y-108151841D01*
X157278159Y-106754841D01*
X156846352Y-106466316D01*
X156337000Y-106365000D01*
X155827648Y-106466316D01*
X155395841Y-106754841D01*
X155107316Y-107186648D01*
X155006000Y-107696000D01*
X155107316Y-108205352D01*
X155395841Y-108637159D01*
X156403000Y-109644318D01*
X156403000Y-116669682D01*
X155141841Y-117930841D01*
X154853316Y-118362648D01*
X154752000Y-118872000D01*
X147127000Y-118872000D01*
X147127000Y-107492800D01*
X147025684Y-106983448D01*
X146737159Y-106551641D01*
X146305352Y-106263116D01*
X145796000Y-106161800D01*
X145286648Y-106263116D01*
X144854841Y-106551641D01*
X144566316Y-106983448D01*
X144465000Y-107492800D01*
X139013000Y-107492800D01*
X139013000Y-106978912D01*
X139083216Y-106625914D01*
X139257732Y-106364732D01*
X139518915Y-106190215D01*
X139871911Y-106120000D01*
X176074000Y-106120000D01*
X176074000Y-124258000D01*
X176074000Y-124258000D01*
G37*
X176074000Y-124258000D02*
X139871911Y-124258000D01*
X139518915Y-124187785D01*
X139257732Y-124013268D01*
X139083216Y-123752086D01*
X139013000Y-123399088D01*
X139013000Y-122428000D01*
X139004238Y-122383950D01*
X139004238Y-122370038D01*
X138907565Y-121884031D01*
X138839477Y-121719652D01*
X138564176Y-121307634D01*
X138438365Y-121181823D01*
X138026348Y-120906523D01*
X137922925Y-120863684D01*
X137861969Y-120838435D01*
X137375961Y-120741762D01*
X137331050Y-120741762D01*
X137287000Y-120733000D01*
X137287000Y-109645000D01*
X137331050Y-109636238D01*
X137375961Y-109636238D01*
X137861969Y-109539565D01*
X138026348Y-109471477D01*
X138438365Y-109196177D01*
X138564176Y-109070366D01*
X138839477Y-108658348D01*
X138907565Y-108493969D01*
X139004238Y-108007962D01*
X139004238Y-107994050D01*
X139013000Y-107950000D01*
X139013000Y-107492800D01*
X144465000Y-107492800D01*
X144465000Y-119126000D01*
X144526000Y-119432669D01*
X144526000Y-123063000D01*
X144554003Y-123206367D01*
X144637592Y-123332408D01*
X144891592Y-123586408D01*
X145012770Y-123667983D01*
X145161000Y-123698000D01*
X147447000Y-123698000D01*
X147590367Y-123669997D01*
X147716408Y-123586408D01*
X147970408Y-123332408D01*
X148051983Y-123211230D01*
X148082000Y-123063000D01*
X148082000Y-120015000D01*
X148053997Y-119871633D01*
X147970408Y-119745592D01*
X147127000Y-118902184D01*
X147127000Y-118872000D01*
X154752000Y-118872000D01*
X154853316Y-119381352D01*
X155141841Y-119813159D01*
X157173841Y-121845159D01*
X157605648Y-122133684D01*
X158115000Y-122235000D01*
X158623000Y-122235000D01*
X159132352Y-122133684D01*
X159564159Y-121845159D01*
X160834159Y-120575159D01*
X161122684Y-120143352D01*
X161224000Y-119634000D01*
X161224000Y-118491000D01*
X161122684Y-117981648D01*
X160834159Y-117549841D01*
X160199159Y-116914841D01*
X159767352Y-116626316D01*
X159258000Y-116525000D01*
X159065000Y-116525000D01*
X159065000Y-109093000D01*
X158963684Y-108583648D01*
X158675159Y-108151841D01*
X157278159Y-106754841D01*
X156846352Y-106466316D01*
X156337000Y-106365000D01*
X155827648Y-106466316D01*
X155395841Y-106754841D01*
X155107316Y-107186648D01*
X155006000Y-107696000D01*
X155107316Y-108205352D01*
X155395841Y-108637159D01*
X156403000Y-109644318D01*
X156403000Y-116669682D01*
X155141841Y-117930841D01*
X154853316Y-118362648D01*
X154752000Y-118872000D01*
X147127000Y-118872000D01*
X147127000Y-107492800D01*
X147025684Y-106983448D01*
X146737159Y-106551641D01*
X146305352Y-106263116D01*
X145796000Y-106161800D01*
X145286648Y-106263116D01*
X144854841Y-106551641D01*
X144566316Y-106983448D01*
X144465000Y-107492800D01*
X139013000Y-107492800D01*
X139013000Y-106978912D01*
X139083216Y-106625914D01*
X139257732Y-106364732D01*
X139518915Y-106190215D01*
X139871911Y-106120000D01*
X176074000Y-106120000D01*
X176074000Y-124258000D01*
G36*
X147574000Y-120067606D02*
X147574000Y-123010394D01*
X147394394Y-123190000D01*
X145213606Y-123190000D01*
X145034000Y-123010394D01*
X145034000Y-119126000D01*
X146632394Y-119126000D01*
X147574000Y-120067606D01*
X147574000Y-120067606D01*
G37*
X147574000Y-120067606D02*
X147574000Y-123010394D01*
X147394394Y-123190000D01*
X145213606Y-123190000D01*
X145034000Y-123010394D01*
X145034000Y-119126000D01*
X146632394Y-119126000D01*
X147574000Y-120067606D01*
M02*
