G04 #@! TF.FileFunction,Legend,Bot*
%FSLAX46Y46*%
G04 Gerber Fmt 4.6, Leading zero omitted, Abs format (unit mm)*
G04 Created by KiCad (PCBNEW 4.0.1-2.fc23-product) date Tue 12 Jan 2016 10:32:47 PM CET*
%MOMM*%
G01*
G04 APERTURE LIST*
%ADD10C,0.100000*%
%ADD11C,0.300000*%
G04 APERTURE END LIST*
D10*
D11*
X170221714Y-111840571D02*
X170221714Y-113054857D01*
X170150286Y-113197714D01*
X170078857Y-113269143D01*
X169936000Y-113340571D01*
X169650286Y-113340571D01*
X169507428Y-113269143D01*
X169436000Y-113197714D01*
X169364571Y-113054857D01*
X169364571Y-111840571D01*
X168721714Y-113269143D02*
X168507428Y-113340571D01*
X168150285Y-113340571D01*
X168007428Y-113269143D01*
X167935999Y-113197714D01*
X167864571Y-113054857D01*
X167864571Y-112912000D01*
X167935999Y-112769143D01*
X168007428Y-112697714D01*
X168150285Y-112626286D01*
X168435999Y-112554857D01*
X168578857Y-112483429D01*
X168650285Y-112412000D01*
X168721714Y-112269143D01*
X168721714Y-112126286D01*
X168650285Y-111983429D01*
X168578857Y-111912000D01*
X168435999Y-111840571D01*
X168078857Y-111840571D01*
X167864571Y-111912000D01*
X166721714Y-112554857D02*
X166507428Y-112626286D01*
X166436000Y-112697714D01*
X166364571Y-112840571D01*
X166364571Y-113054857D01*
X166436000Y-113197714D01*
X166507428Y-113269143D01*
X166650286Y-113340571D01*
X167221714Y-113340571D01*
X167221714Y-111840571D01*
X166721714Y-111840571D01*
X166578857Y-111912000D01*
X166507428Y-111983429D01*
X166436000Y-112126286D01*
X166436000Y-112269143D01*
X166507428Y-112412000D01*
X166578857Y-112483429D01*
X166721714Y-112554857D01*
X167221714Y-112554857D01*
X163721714Y-113197714D02*
X163793143Y-113269143D01*
X164007429Y-113340571D01*
X164150286Y-113340571D01*
X164364571Y-113269143D01*
X164507429Y-113126286D01*
X164578857Y-112983429D01*
X164650286Y-112697714D01*
X164650286Y-112483429D01*
X164578857Y-112197714D01*
X164507429Y-112054857D01*
X164364571Y-111912000D01*
X164150286Y-111840571D01*
X164007429Y-111840571D01*
X163793143Y-111912000D01*
X163721714Y-111983429D01*
X162864571Y-113340571D02*
X163007429Y-113269143D01*
X163078857Y-113197714D01*
X163150286Y-113054857D01*
X163150286Y-112626286D01*
X163078857Y-112483429D01*
X163007429Y-112412000D01*
X162864571Y-112340571D01*
X162650286Y-112340571D01*
X162507429Y-112412000D01*
X162436000Y-112483429D01*
X162364571Y-112626286D01*
X162364571Y-113054857D01*
X162436000Y-113197714D01*
X162507429Y-113269143D01*
X162650286Y-113340571D01*
X162864571Y-113340571D01*
X161721714Y-112340571D02*
X161721714Y-113340571D01*
X161721714Y-112483429D02*
X161650286Y-112412000D01*
X161507428Y-112340571D01*
X161293143Y-112340571D01*
X161150286Y-112412000D01*
X161078857Y-112554857D01*
X161078857Y-113340571D01*
X159721714Y-113340571D02*
X159721714Y-111840571D01*
X159721714Y-113269143D02*
X159864571Y-113340571D01*
X160150285Y-113340571D01*
X160293143Y-113269143D01*
X160364571Y-113197714D01*
X160436000Y-113054857D01*
X160436000Y-112626286D01*
X160364571Y-112483429D01*
X160293143Y-112412000D01*
X160150285Y-112340571D01*
X159864571Y-112340571D01*
X159721714Y-112412000D01*
X158793142Y-113340571D02*
X158936000Y-113269143D01*
X159007428Y-113197714D01*
X159078857Y-113054857D01*
X159078857Y-112626286D01*
X159007428Y-112483429D01*
X158936000Y-112412000D01*
X158793142Y-112340571D01*
X158578857Y-112340571D01*
X158436000Y-112412000D01*
X158364571Y-112483429D01*
X158293142Y-112626286D01*
X158293142Y-113054857D01*
X158364571Y-113197714D01*
X158436000Y-113269143D01*
X158578857Y-113340571D01*
X158793142Y-113340571D01*
X157650285Y-113340571D02*
X157650285Y-112340571D01*
X157650285Y-112483429D02*
X157578857Y-112412000D01*
X157435999Y-112340571D01*
X157221714Y-112340571D01*
X157078857Y-112412000D01*
X157007428Y-112554857D01*
X157007428Y-113340571D01*
X157007428Y-112554857D02*
X156935999Y-112412000D01*
X156793142Y-112340571D01*
X156578857Y-112340571D01*
X156435999Y-112412000D01*
X156364571Y-112554857D01*
X156364571Y-113340571D01*
X154507428Y-112554857D02*
X154007428Y-112554857D01*
X153793142Y-113340571D02*
X154507428Y-113340571D01*
X154507428Y-111840571D01*
X153793142Y-111840571D01*
X153293142Y-113340571D02*
X152507428Y-112340571D01*
X153293142Y-112340571D02*
X152507428Y-113340571D01*
X152150285Y-112340571D02*
X151578856Y-112340571D01*
X151935999Y-111840571D02*
X151935999Y-113126286D01*
X151864571Y-113269143D01*
X151721713Y-113340571D01*
X151578856Y-113340571D01*
X150507428Y-113269143D02*
X150650285Y-113340571D01*
X150935999Y-113340571D01*
X151078856Y-113269143D01*
X151150285Y-113126286D01*
X151150285Y-112554857D01*
X151078856Y-112412000D01*
X150935999Y-112340571D01*
X150650285Y-112340571D01*
X150507428Y-112412000D01*
X150435999Y-112554857D01*
X150435999Y-112697714D01*
X151150285Y-112840571D01*
X149793142Y-112340571D02*
X149793142Y-113340571D01*
X149793142Y-112483429D02*
X149721714Y-112412000D01*
X149578856Y-112340571D01*
X149364571Y-112340571D01*
X149221714Y-112412000D01*
X149150285Y-112554857D01*
X149150285Y-113340571D01*
X147793142Y-113340571D02*
X147793142Y-111840571D01*
X147793142Y-113269143D02*
X147935999Y-113340571D01*
X148221713Y-113340571D01*
X148364571Y-113269143D01*
X148435999Y-113197714D01*
X148507428Y-113054857D01*
X148507428Y-112626286D01*
X148435999Y-112483429D01*
X148364571Y-112412000D01*
X148221713Y-112340571D01*
X147935999Y-112340571D01*
X147793142Y-112412000D01*
X146507428Y-113269143D02*
X146650285Y-113340571D01*
X146935999Y-113340571D01*
X147078856Y-113269143D01*
X147150285Y-113126286D01*
X147150285Y-112554857D01*
X147078856Y-112412000D01*
X146935999Y-112340571D01*
X146650285Y-112340571D01*
X146507428Y-112412000D01*
X146435999Y-112554857D01*
X146435999Y-112697714D01*
X147150285Y-112840571D01*
X145150285Y-113340571D02*
X145150285Y-111840571D01*
X145150285Y-113269143D02*
X145293142Y-113340571D01*
X145578856Y-113340571D01*
X145721714Y-113269143D01*
X145793142Y-113197714D01*
X145864571Y-113054857D01*
X145864571Y-112626286D01*
X145793142Y-112483429D01*
X145721714Y-112412000D01*
X145578856Y-112340571D01*
X145293142Y-112340571D01*
X145150285Y-112412000D01*
X143507428Y-111840571D02*
X143007428Y-113340571D01*
X142507428Y-111840571D01*
X141221714Y-113340571D02*
X142078857Y-113340571D01*
X141650285Y-113340571D02*
X141650285Y-111840571D01*
X141793142Y-112054857D01*
X141936000Y-112197714D01*
X142078857Y-112269143D01*
X140578857Y-113197714D02*
X140507429Y-113269143D01*
X140578857Y-113340571D01*
X140650286Y-113269143D01*
X140578857Y-113197714D01*
X140578857Y-113340571D01*
X139578857Y-111840571D02*
X139436000Y-111840571D01*
X139293143Y-111912000D01*
X139221714Y-111983429D01*
X139150285Y-112126286D01*
X139078857Y-112412000D01*
X139078857Y-112769143D01*
X139150285Y-113054857D01*
X139221714Y-113197714D01*
X139293143Y-113269143D01*
X139436000Y-113340571D01*
X139578857Y-113340571D01*
X139721714Y-113269143D01*
X139793143Y-113197714D01*
X139864571Y-113054857D01*
X139936000Y-112769143D01*
X139936000Y-112412000D01*
X139864571Y-112126286D01*
X139793143Y-111983429D01*
X139721714Y-111912000D01*
X139578857Y-111840571D01*
X166971714Y-114240571D02*
X166686000Y-114240571D01*
X166543142Y-114312000D01*
X166400285Y-114454857D01*
X166328857Y-114740571D01*
X166328857Y-115240571D01*
X166400285Y-115526286D01*
X166543142Y-115669143D01*
X166686000Y-115740571D01*
X166971714Y-115740571D01*
X167114571Y-115669143D01*
X167257428Y-115526286D01*
X167328857Y-115240571D01*
X167328857Y-114740571D01*
X167257428Y-114454857D01*
X167114571Y-114312000D01*
X166971714Y-114240571D01*
X165685999Y-114740571D02*
X165685999Y-116240571D01*
X165685999Y-114812000D02*
X165543142Y-114740571D01*
X165257428Y-114740571D01*
X165114571Y-114812000D01*
X165043142Y-114883429D01*
X164971713Y-115026286D01*
X164971713Y-115454857D01*
X165043142Y-115597714D01*
X165114571Y-115669143D01*
X165257428Y-115740571D01*
X165543142Y-115740571D01*
X165685999Y-115669143D01*
X163757428Y-115669143D02*
X163900285Y-115740571D01*
X164185999Y-115740571D01*
X164328856Y-115669143D01*
X164400285Y-115526286D01*
X164400285Y-114954857D01*
X164328856Y-114812000D01*
X164185999Y-114740571D01*
X163900285Y-114740571D01*
X163757428Y-114812000D01*
X163685999Y-114954857D01*
X163685999Y-115097714D01*
X164400285Y-115240571D01*
X163043142Y-114740571D02*
X163043142Y-115740571D01*
X163043142Y-114883429D02*
X162971714Y-114812000D01*
X162828856Y-114740571D01*
X162614571Y-114740571D01*
X162471714Y-114812000D01*
X162400285Y-114954857D01*
X162400285Y-115740571D01*
X160614571Y-115669143D02*
X160400285Y-115740571D01*
X160043142Y-115740571D01*
X159900285Y-115669143D01*
X159828856Y-115597714D01*
X159757428Y-115454857D01*
X159757428Y-115312000D01*
X159828856Y-115169143D01*
X159900285Y-115097714D01*
X160043142Y-115026286D01*
X160328856Y-114954857D01*
X160471714Y-114883429D01*
X160543142Y-114812000D01*
X160614571Y-114669143D01*
X160614571Y-114526286D01*
X160543142Y-114383429D01*
X160471714Y-114312000D01*
X160328856Y-114240571D01*
X159971714Y-114240571D01*
X159757428Y-114312000D01*
X158900285Y-115740571D02*
X159043143Y-115669143D01*
X159114571Y-115597714D01*
X159186000Y-115454857D01*
X159186000Y-115026286D01*
X159114571Y-114883429D01*
X159043143Y-114812000D01*
X158900285Y-114740571D01*
X158686000Y-114740571D01*
X158543143Y-114812000D01*
X158471714Y-114883429D01*
X158400285Y-115026286D01*
X158400285Y-115454857D01*
X158471714Y-115597714D01*
X158543143Y-115669143D01*
X158686000Y-115740571D01*
X158900285Y-115740571D01*
X157114571Y-114740571D02*
X157114571Y-115740571D01*
X157757428Y-114740571D02*
X157757428Y-115526286D01*
X157686000Y-115669143D01*
X157543142Y-115740571D01*
X157328857Y-115740571D01*
X157186000Y-115669143D01*
X157114571Y-115597714D01*
X156400285Y-115740571D02*
X156400285Y-114740571D01*
X156400285Y-115026286D02*
X156328857Y-114883429D01*
X156257428Y-114812000D01*
X156114571Y-114740571D01*
X155971714Y-114740571D01*
X154828857Y-115669143D02*
X154971714Y-115740571D01*
X155257428Y-115740571D01*
X155400286Y-115669143D01*
X155471714Y-115597714D01*
X155543143Y-115454857D01*
X155543143Y-115026286D01*
X155471714Y-114883429D01*
X155400286Y-114812000D01*
X155257428Y-114740571D01*
X154971714Y-114740571D01*
X154828857Y-114812000D01*
X153614572Y-115669143D02*
X153757429Y-115740571D01*
X154043143Y-115740571D01*
X154186000Y-115669143D01*
X154257429Y-115526286D01*
X154257429Y-114954857D01*
X154186000Y-114812000D01*
X154043143Y-114740571D01*
X153757429Y-114740571D01*
X153614572Y-114812000D01*
X153543143Y-114954857D01*
X153543143Y-115097714D01*
X154257429Y-115240571D01*
X151757429Y-115740571D02*
X151757429Y-114240571D01*
X151757429Y-114954857D02*
X150900286Y-114954857D01*
X150900286Y-115740571D02*
X150900286Y-114240571D01*
X149543143Y-115740571D02*
X149543143Y-114954857D01*
X149614572Y-114812000D01*
X149757429Y-114740571D01*
X150043143Y-114740571D01*
X150186000Y-114812000D01*
X149543143Y-115669143D02*
X149686000Y-115740571D01*
X150043143Y-115740571D01*
X150186000Y-115669143D01*
X150257429Y-115526286D01*
X150257429Y-115383429D01*
X150186000Y-115240571D01*
X150043143Y-115169143D01*
X149686000Y-115169143D01*
X149543143Y-115097714D01*
X148828857Y-115740571D02*
X148828857Y-114740571D01*
X148828857Y-115026286D02*
X148757429Y-114883429D01*
X148686000Y-114812000D01*
X148543143Y-114740571D01*
X148400286Y-114740571D01*
X147257429Y-115740571D02*
X147257429Y-114240571D01*
X147257429Y-115669143D02*
X147400286Y-115740571D01*
X147686000Y-115740571D01*
X147828858Y-115669143D01*
X147900286Y-115597714D01*
X147971715Y-115454857D01*
X147971715Y-115026286D01*
X147900286Y-114883429D01*
X147828858Y-114812000D01*
X147686000Y-114740571D01*
X147400286Y-114740571D01*
X147257429Y-114812000D01*
X146686000Y-114740571D02*
X146400286Y-115740571D01*
X146114572Y-115026286D01*
X145828857Y-115740571D01*
X145543143Y-114740571D01*
X144328857Y-115740571D02*
X144328857Y-114954857D01*
X144400286Y-114812000D01*
X144543143Y-114740571D01*
X144828857Y-114740571D01*
X144971714Y-114812000D01*
X144328857Y-115669143D02*
X144471714Y-115740571D01*
X144828857Y-115740571D01*
X144971714Y-115669143D01*
X145043143Y-115526286D01*
X145043143Y-115383429D01*
X144971714Y-115240571D01*
X144828857Y-115169143D01*
X144471714Y-115169143D01*
X144328857Y-115097714D01*
X143614571Y-115740571D02*
X143614571Y-114740571D01*
X143614571Y-115026286D02*
X143543143Y-114883429D01*
X143471714Y-114812000D01*
X143328857Y-114740571D01*
X143186000Y-114740571D01*
X142114572Y-115669143D02*
X142257429Y-115740571D01*
X142543143Y-115740571D01*
X142686000Y-115669143D01*
X142757429Y-115526286D01*
X142757429Y-114954857D01*
X142686000Y-114812000D01*
X142543143Y-114740571D01*
X142257429Y-114740571D01*
X142114572Y-114812000D01*
X142043143Y-114954857D01*
X142043143Y-115097714D01*
X142757429Y-115240571D01*
X167507428Y-117354857D02*
X167293142Y-117426286D01*
X167221714Y-117497714D01*
X167150285Y-117640571D01*
X167150285Y-117854857D01*
X167221714Y-117997714D01*
X167293142Y-118069143D01*
X167436000Y-118140571D01*
X168007428Y-118140571D01*
X168007428Y-116640571D01*
X167507428Y-116640571D01*
X167364571Y-116712000D01*
X167293142Y-116783429D01*
X167221714Y-116926286D01*
X167221714Y-117069143D01*
X167293142Y-117212000D01*
X167364571Y-117283429D01*
X167507428Y-117354857D01*
X168007428Y-117354857D01*
X166650285Y-117140571D02*
X166293142Y-118140571D01*
X165936000Y-117140571D02*
X166293142Y-118140571D01*
X166436000Y-118497714D01*
X166507428Y-118569143D01*
X166650285Y-118640571D01*
X164221714Y-118140571D02*
X164221714Y-116640571D01*
X163364571Y-118140571D01*
X163364571Y-116640571D01*
X162078857Y-118069143D02*
X162221714Y-118140571D01*
X162507428Y-118140571D01*
X162650285Y-118069143D01*
X162721714Y-117926286D01*
X162721714Y-117354857D01*
X162650285Y-117212000D01*
X162507428Y-117140571D01*
X162221714Y-117140571D01*
X162078857Y-117212000D01*
X162007428Y-117354857D01*
X162007428Y-117497714D01*
X162721714Y-117640571D01*
X161150285Y-118140571D02*
X161293143Y-118069143D01*
X161364571Y-117997714D01*
X161436000Y-117854857D01*
X161436000Y-117426286D01*
X161364571Y-117283429D01*
X161293143Y-117212000D01*
X161150285Y-117140571D01*
X160936000Y-117140571D01*
X160793143Y-117212000D01*
X160721714Y-117283429D01*
X160650285Y-117426286D01*
X160650285Y-117854857D01*
X160721714Y-117997714D01*
X160793143Y-118069143D01*
X160936000Y-118140571D01*
X161150285Y-118140571D01*
X159507428Y-117354857D02*
X160007428Y-117354857D01*
X160007428Y-118140571D02*
X160007428Y-116640571D01*
X159293142Y-116640571D01*
X158721714Y-118140571D02*
X158721714Y-117140571D01*
X158721714Y-117426286D02*
X158650286Y-117283429D01*
X158578857Y-117212000D01*
X158436000Y-117140571D01*
X158293143Y-117140571D01*
X157578857Y-118140571D02*
X157721715Y-118069143D01*
X157793143Y-117997714D01*
X157864572Y-117854857D01*
X157864572Y-117426286D01*
X157793143Y-117283429D01*
X157721715Y-117212000D01*
X157578857Y-117140571D01*
X157364572Y-117140571D01*
X157221715Y-117212000D01*
X157150286Y-117283429D01*
X157078857Y-117426286D01*
X157078857Y-117854857D01*
X157150286Y-117997714D01*
X157221715Y-118069143D01*
X157364572Y-118140571D01*
X157578857Y-118140571D01*
X156436000Y-118140571D02*
X156436000Y-117140571D01*
X156436000Y-117283429D02*
X156364572Y-117212000D01*
X156221714Y-117140571D01*
X156007429Y-117140571D01*
X155864572Y-117212000D01*
X155793143Y-117354857D01*
X155793143Y-118140571D01*
X155793143Y-117354857D02*
X155721714Y-117212000D01*
X155578857Y-117140571D01*
X155364572Y-117140571D01*
X155221714Y-117212000D01*
X155150286Y-117354857D01*
X155150286Y-118140571D01*
X154436000Y-118140571D02*
X154436000Y-116640571D01*
X153936000Y-117712000D01*
X153436000Y-116640571D01*
X153436000Y-118140571D01*
X152078857Y-118140571D02*
X152078857Y-117354857D01*
X152150286Y-117212000D01*
X152293143Y-117140571D01*
X152578857Y-117140571D01*
X152721714Y-117212000D01*
X152078857Y-118069143D02*
X152221714Y-118140571D01*
X152578857Y-118140571D01*
X152721714Y-118069143D01*
X152793143Y-117926286D01*
X152793143Y-117783429D01*
X152721714Y-117640571D01*
X152578857Y-117569143D01*
X152221714Y-117569143D01*
X152078857Y-117497714D01*
X151578857Y-117140571D02*
X151007428Y-117140571D01*
X151364571Y-116640571D02*
X151364571Y-117926286D01*
X151293143Y-118069143D01*
X151150285Y-118140571D01*
X151007428Y-118140571D01*
X150507428Y-118140571D02*
X150507428Y-117140571D01*
X150507428Y-117426286D02*
X150436000Y-117283429D01*
X150364571Y-117212000D01*
X150221714Y-117140571D01*
X150078857Y-117140571D01*
X149578857Y-118140571D02*
X149578857Y-117140571D01*
X149578857Y-116640571D02*
X149650286Y-116712000D01*
X149578857Y-116783429D01*
X149507429Y-116712000D01*
X149578857Y-116640571D01*
X149578857Y-116783429D01*
X149007428Y-118140571D02*
X148221714Y-117140571D01*
X149007428Y-117140571D02*
X148221714Y-118140571D01*
X146578857Y-116569143D02*
X147864571Y-118497714D01*
X145793142Y-116640571D02*
X145650285Y-116640571D01*
X145507428Y-116712000D01*
X145435999Y-116783429D01*
X145364570Y-116926286D01*
X145293142Y-117212000D01*
X145293142Y-117569143D01*
X145364570Y-117854857D01*
X145435999Y-117997714D01*
X145507428Y-118069143D01*
X145650285Y-118140571D01*
X145793142Y-118140571D01*
X145935999Y-118069143D01*
X146007428Y-117997714D01*
X146078856Y-117854857D01*
X146150285Y-117569143D01*
X146150285Y-117212000D01*
X146078856Y-116926286D01*
X146007428Y-116783429D01*
X145935999Y-116712000D01*
X145793142Y-116640571D01*
X144793142Y-118140571D02*
X144007428Y-117140571D01*
X144793142Y-117140571D02*
X144007428Y-118140571D01*
X143578856Y-116640571D02*
X142650285Y-116640571D01*
X143150285Y-117212000D01*
X142935999Y-117212000D01*
X142793142Y-117283429D01*
X142721713Y-117354857D01*
X142650285Y-117497714D01*
X142650285Y-117854857D01*
X142721713Y-117997714D01*
X142793142Y-118069143D01*
X142935999Y-118140571D01*
X143364571Y-118140571D01*
X143507428Y-118069143D01*
X143578856Y-117997714D01*
X141364571Y-118140571D02*
X141364571Y-116640571D01*
X141364571Y-118069143D02*
X141507428Y-118140571D01*
X141793142Y-118140571D01*
X141936000Y-118069143D01*
X142007428Y-117997714D01*
X142078857Y-117854857D01*
X142078857Y-117426286D01*
X142007428Y-117283429D01*
X141936000Y-117212000D01*
X141793142Y-117140571D01*
X141507428Y-117140571D01*
X141364571Y-117212000D01*
M02*
