M48
;DRILL file {KiCad 4.0.1-2.fc23-product} date Tue 12 Jan 2016 10:33:38 PM CET
;FORMAT={-:-/ absolute / metric / decimal}
FMAT,2
METRIC,TZ
T1C0.400
T2C2.300
%
G90
G05
M71
T1
X138.811Y-111.506
X139.446Y-110.744
X139.954Y-111.506
X140.462Y-110.744
X140.97Y-111.506
X141.478Y-110.744
X145.415Y-107.569
X145.415Y-108.839
X145.415Y-109.982
X145.796Y-120.396
X145.923Y-122.682
X146.05Y-121.539
X146.177Y-107.061
X146.177Y-109.474
X147.066Y-120.396
X147.066Y-121.539
X147.066Y-122.682
X147.828Y-111.76
X148.59Y-110.871
X149.352Y-111.76
X150.114Y-110.871
X150.876Y-111.76
X151.638Y-109.982
X152.527Y-122.936
X152.654Y-120.396
X152.654Y-121.666
X153.289Y-111.887
X153.67Y-120.396
X153.67Y-121.666
X153.67Y-122.936
X155.956Y-107.569
X156.21Y-118.237
X156.21Y-119.634
X156.718Y-107.823
X156.845Y-119.126
X156.972Y-108.585
X157.226Y-120.015
X157.607Y-118.618
X157.734Y-108.839
X158.115Y-119.888
X158.369Y-119.126
X159.004Y-120.142
X159.258Y-118.618
X159.385Y-119.38
X159.385Y-120.777
X160.401Y-118.364
X160.401Y-119.761
X160.528Y-106.68
X160.528Y-108.712
X160.528Y-110.744
X161.036Y-123.444
X166.116Y-116.84
X174.752Y-107.188
X174.752Y-110.236
X174.752Y-113.792
X174.752Y-116.332
X174.752Y-120.396
X174.752Y-123.444
T2
X166.243Y-108.619
X166.243Y-121.759
T0
M30
