G04 #@! TF.FileFunction,Legend,Top*
%FSLAX46Y46*%
G04 Gerber Fmt 4.6, Leading zero omitted, Abs format (unit mm)*
G04 Created by KiCad (PCBNEW 4.0.1-2.fc23-product) date Tue 19 Jan 2016 10:13:06 PM CET*
%MOMM*%
G01*
G04 APERTURE LIST*
%ADD10C,0.100000*%
%ADD11C,0.150000*%
%ADD12C,0.300000*%
G04 APERTURE END LIST*
D10*
D11*
X179070000Y-101346000D02*
X176530000Y-101346000D01*
X181890000Y-101626000D02*
X180340000Y-101626000D01*
X179070000Y-101346000D02*
X179070000Y-98806000D01*
X180340000Y-98526000D02*
X181890000Y-98526000D01*
X181890000Y-98526000D02*
X181890000Y-101626000D01*
X179070000Y-98806000D02*
X176530000Y-98806000D01*
X176530000Y-98806000D02*
X176530000Y-101346000D01*
X179070000Y-114554000D02*
X176530000Y-114554000D01*
X181890000Y-114834000D02*
X180340000Y-114834000D01*
X179070000Y-114554000D02*
X179070000Y-112014000D01*
X180340000Y-111734000D02*
X181890000Y-111734000D01*
X181890000Y-111734000D02*
X181890000Y-114834000D01*
X179070000Y-112014000D02*
X176530000Y-112014000D01*
X176530000Y-112014000D02*
X176530000Y-114554000D01*
X184150000Y-116205000D02*
X200780000Y-116205000D01*
X184150000Y-97155000D02*
X184150000Y-116205000D01*
X200780000Y-97155000D02*
X184150000Y-97155000D01*
X200780000Y-116205000D02*
X200780000Y-97155000D01*
D12*
X177292191Y-102378000D02*
X177101714Y-102282762D01*
X176816000Y-102282762D01*
X176530286Y-102378000D01*
X176339810Y-102568476D01*
X176244571Y-102758952D01*
X176149333Y-103139905D01*
X176149333Y-103425619D01*
X176244571Y-103806571D01*
X176339810Y-103997048D01*
X176530286Y-104187524D01*
X176816000Y-104282762D01*
X177006476Y-104282762D01*
X177292191Y-104187524D01*
X177387429Y-104092286D01*
X177387429Y-103425619D01*
X177006476Y-103425619D01*
X178244571Y-104282762D02*
X178244571Y-102282762D01*
X179387429Y-104282762D01*
X179387429Y-102282762D01*
X180339809Y-104282762D02*
X180339809Y-102282762D01*
X180816000Y-102282762D01*
X181101714Y-102378000D01*
X181292190Y-102568476D01*
X181387429Y-102758952D01*
X181482667Y-103139905D01*
X181482667Y-103425619D01*
X181387429Y-103806571D01*
X181292190Y-103997048D01*
X181101714Y-104187524D01*
X180816000Y-104282762D01*
X180339809Y-104282762D01*
X178689047Y-108632762D02*
X177736666Y-108632762D01*
X177641428Y-109585143D01*
X177736666Y-109489905D01*
X177927143Y-109394667D01*
X178403333Y-109394667D01*
X178593809Y-109489905D01*
X178689047Y-109585143D01*
X178784286Y-109775619D01*
X178784286Y-110251810D01*
X178689047Y-110442286D01*
X178593809Y-110537524D01*
X178403333Y-110632762D01*
X177927143Y-110632762D01*
X177736666Y-110537524D01*
X177641428Y-110442286D01*
X179355714Y-108632762D02*
X180022381Y-110632762D01*
X180689048Y-108632762D01*
D11*
X193492381Y-107418095D02*
X192492381Y-107418095D01*
X192492381Y-107037142D01*
X192540000Y-106941904D01*
X192587619Y-106894285D01*
X192682857Y-106846666D01*
X192825714Y-106846666D01*
X192920952Y-106894285D01*
X192968571Y-106941904D01*
X193016190Y-107037142D01*
X193016190Y-107418095D01*
X192587619Y-106465714D02*
X192540000Y-106418095D01*
X192492381Y-106322857D01*
X192492381Y-106084761D01*
X192540000Y-105989523D01*
X192587619Y-105941904D01*
X192682857Y-105894285D01*
X192778095Y-105894285D01*
X192920952Y-105941904D01*
X193492381Y-106513333D01*
X193492381Y-105894285D01*
M02*
