G04 #@! TF.FileFunction,Copper,L1,Top,Signal*
%FSLAX46Y46*%
G04 Gerber Fmt 4.6, Leading zero omitted, Abs format (unit mm)*
G04 Created by KiCad (PCBNEW 4.0.1-2.fc23-product) date Tue 19 Jan 2016 10:13:06 PM CET*
%MOMM*%
G01*
G04 APERTURE LIST*
%ADD10C,0.100000*%
%ADD11R,2.032000X2.032000*%
%ADD12O,2.032000X2.032000*%
%ADD13R,8.000000X1.900000*%
%ADD14R,7.500000X2.000000*%
%ADD15C,3.000000*%
%ADD16R,2.880000X1.120000*%
%ADD17C,1.900000*%
%ADD18C,0.500000*%
%ADD19C,0.254000*%
G04 APERTURE END LIST*
D10*
D11*
X180340000Y-100076000D03*
D12*
X177800000Y-100076000D03*
D11*
X180340000Y-113284000D03*
D12*
X177800000Y-113284000D03*
D13*
X165104000Y-110490000D03*
X165104000Y-102870000D03*
D14*
X165354000Y-105380000D03*
X165354000Y-107980000D03*
D15*
X190500000Y-113250000D03*
X190500000Y-100110000D03*
D16*
X186920000Y-110180000D03*
X186920000Y-107680000D03*
X186920000Y-105680000D03*
X186920000Y-103180000D03*
D17*
X186920000Y-103180000D02*
X183444000Y-103180000D01*
X183444000Y-103180000D02*
X180340000Y-100076000D01*
X165104000Y-102870000D02*
X175006000Y-102870000D01*
X175006000Y-102870000D02*
X177800000Y-100076000D01*
X186920000Y-110180000D02*
X183444000Y-110180000D01*
X183444000Y-110180000D02*
X180340000Y-113284000D01*
X165104000Y-110490000D02*
X175006000Y-110490000D01*
X175006000Y-110490000D02*
X177800000Y-113284000D01*
D18*
X186920000Y-105680000D02*
X165654000Y-105680000D01*
X165654000Y-105680000D02*
X165354000Y-105380000D01*
X186920000Y-107680000D02*
X165654000Y-107680000D01*
X165654000Y-107680000D02*
X165354000Y-107980000D01*
D19*
G36*
X199950000Y-115368000D02*
X184277000Y-115368000D01*
X184277000Y-114705077D01*
X189224529Y-114705077D01*
X189390259Y-114993493D01*
X190141939Y-115285457D01*
X190948130Y-115267541D01*
X191609741Y-114993493D01*
X191775471Y-114705077D01*
X190500000Y-113429605D01*
X189224529Y-114705077D01*
X184277000Y-114705077D01*
X184277000Y-112891939D01*
X188464543Y-112891939D01*
X188482459Y-113698130D01*
X188756507Y-114359741D01*
X189044923Y-114525471D01*
X190320395Y-113250000D01*
X190679605Y-113250000D01*
X191955077Y-114525471D01*
X192243493Y-114359741D01*
X192535457Y-113608061D01*
X192517541Y-112801870D01*
X192243493Y-112140259D01*
X191955077Y-111974529D01*
X190679605Y-113250000D01*
X190320395Y-113250000D01*
X189044923Y-111974529D01*
X188756507Y-112140259D01*
X188464543Y-112891939D01*
X184277000Y-112891939D01*
X184277000Y-111794923D01*
X189224529Y-111794923D01*
X190500000Y-113070395D01*
X191775471Y-111794923D01*
X191609741Y-111506507D01*
X190858061Y-111214543D01*
X190051870Y-111232459D01*
X189390259Y-111506507D01*
X189224529Y-111794923D01*
X184277000Y-111794923D01*
X184277000Y-111765000D01*
X186920000Y-111765000D01*
X187526553Y-111644349D01*
X187911044Y-111387440D01*
X188360000Y-111387440D01*
X188595317Y-111343162D01*
X188811441Y-111204090D01*
X188956431Y-110991890D01*
X189007440Y-110740000D01*
X189007440Y-109620000D01*
X188963162Y-109384683D01*
X188824090Y-109168559D01*
X188611890Y-109023569D01*
X188360000Y-108972560D01*
X187911044Y-108972560D01*
X187783653Y-108887440D01*
X188360000Y-108887440D01*
X188595317Y-108843162D01*
X188811441Y-108704090D01*
X188956431Y-108491890D01*
X189007440Y-108240000D01*
X189007440Y-107120000D01*
X188963162Y-106884683D01*
X188829730Y-106677323D01*
X188956431Y-106491890D01*
X189007440Y-106240000D01*
X189007440Y-105120000D01*
X188963162Y-104884683D01*
X188824090Y-104668559D01*
X188611890Y-104523569D01*
X188360000Y-104472560D01*
X185480000Y-104472560D01*
X185244683Y-104516838D01*
X185028559Y-104655910D01*
X184933523Y-104795000D01*
X184277000Y-104795000D01*
X184277000Y-101565077D01*
X189224529Y-101565077D01*
X189390259Y-101853493D01*
X190141939Y-102145457D01*
X190948130Y-102127541D01*
X191609741Y-101853493D01*
X191775471Y-101565077D01*
X190500000Y-100289605D01*
X189224529Y-101565077D01*
X184277000Y-101565077D01*
X184277000Y-99751939D01*
X188464543Y-99751939D01*
X188482459Y-100558130D01*
X188756507Y-101219741D01*
X189044923Y-101385471D01*
X190320395Y-100110000D01*
X190679605Y-100110000D01*
X191955077Y-101385471D01*
X192243493Y-101219741D01*
X192535457Y-100468061D01*
X192517541Y-99661870D01*
X192243493Y-99000259D01*
X191955077Y-98834529D01*
X190679605Y-100110000D01*
X190320395Y-100110000D01*
X189044923Y-98834529D01*
X188756507Y-99000259D01*
X188464543Y-99751939D01*
X184277000Y-99751939D01*
X184277000Y-98654923D01*
X189224529Y-98654923D01*
X190500000Y-99930395D01*
X191775471Y-98654923D01*
X191609741Y-98366507D01*
X190858061Y-98074543D01*
X190051870Y-98092459D01*
X189390259Y-98366507D01*
X189224529Y-98654923D01*
X184277000Y-98654923D01*
X184277000Y-97992000D01*
X199950000Y-97992000D01*
X199950000Y-115368000D01*
X199950000Y-115368000D01*
G37*
X199950000Y-115368000D02*
X184277000Y-115368000D01*
X184277000Y-114705077D01*
X189224529Y-114705077D01*
X189390259Y-114993493D01*
X190141939Y-115285457D01*
X190948130Y-115267541D01*
X191609741Y-114993493D01*
X191775471Y-114705077D01*
X190500000Y-113429605D01*
X189224529Y-114705077D01*
X184277000Y-114705077D01*
X184277000Y-112891939D01*
X188464543Y-112891939D01*
X188482459Y-113698130D01*
X188756507Y-114359741D01*
X189044923Y-114525471D01*
X190320395Y-113250000D01*
X190679605Y-113250000D01*
X191955077Y-114525471D01*
X192243493Y-114359741D01*
X192535457Y-113608061D01*
X192517541Y-112801870D01*
X192243493Y-112140259D01*
X191955077Y-111974529D01*
X190679605Y-113250000D01*
X190320395Y-113250000D01*
X189044923Y-111974529D01*
X188756507Y-112140259D01*
X188464543Y-112891939D01*
X184277000Y-112891939D01*
X184277000Y-111794923D01*
X189224529Y-111794923D01*
X190500000Y-113070395D01*
X191775471Y-111794923D01*
X191609741Y-111506507D01*
X190858061Y-111214543D01*
X190051870Y-111232459D01*
X189390259Y-111506507D01*
X189224529Y-111794923D01*
X184277000Y-111794923D01*
X184277000Y-111765000D01*
X186920000Y-111765000D01*
X187526553Y-111644349D01*
X187911044Y-111387440D01*
X188360000Y-111387440D01*
X188595317Y-111343162D01*
X188811441Y-111204090D01*
X188956431Y-110991890D01*
X189007440Y-110740000D01*
X189007440Y-109620000D01*
X188963162Y-109384683D01*
X188824090Y-109168559D01*
X188611890Y-109023569D01*
X188360000Y-108972560D01*
X187911044Y-108972560D01*
X187783653Y-108887440D01*
X188360000Y-108887440D01*
X188595317Y-108843162D01*
X188811441Y-108704090D01*
X188956431Y-108491890D01*
X189007440Y-108240000D01*
X189007440Y-107120000D01*
X188963162Y-106884683D01*
X188829730Y-106677323D01*
X188956431Y-106491890D01*
X189007440Y-106240000D01*
X189007440Y-105120000D01*
X188963162Y-104884683D01*
X188824090Y-104668559D01*
X188611890Y-104523569D01*
X188360000Y-104472560D01*
X185480000Y-104472560D01*
X185244683Y-104516838D01*
X185028559Y-104655910D01*
X184933523Y-104795000D01*
X184277000Y-104795000D01*
X184277000Y-101565077D01*
X189224529Y-101565077D01*
X189390259Y-101853493D01*
X190141939Y-102145457D01*
X190948130Y-102127541D01*
X191609741Y-101853493D01*
X191775471Y-101565077D01*
X190500000Y-100289605D01*
X189224529Y-101565077D01*
X184277000Y-101565077D01*
X184277000Y-99751939D01*
X188464543Y-99751939D01*
X188482459Y-100558130D01*
X188756507Y-101219741D01*
X189044923Y-101385471D01*
X190320395Y-100110000D01*
X190679605Y-100110000D01*
X191955077Y-101385471D01*
X192243493Y-101219741D01*
X192535457Y-100468061D01*
X192517541Y-99661870D01*
X192243493Y-99000259D01*
X191955077Y-98834529D01*
X190679605Y-100110000D01*
X190320395Y-100110000D01*
X189044923Y-98834529D01*
X188756507Y-99000259D01*
X188464543Y-99751939D01*
X184277000Y-99751939D01*
X184277000Y-98654923D01*
X189224529Y-98654923D01*
X190500000Y-99930395D01*
X191775471Y-98654923D01*
X191609741Y-98366507D01*
X190858061Y-98074543D01*
X190051870Y-98092459D01*
X189390259Y-98366507D01*
X189224529Y-98654923D01*
X184277000Y-98654923D01*
X184277000Y-97992000D01*
X199950000Y-97992000D01*
X199950000Y-115368000D01*
M02*
